<?xml version="1.0" encoding="utf-8"?>
<!-- Generator: Adobe Illustrator 22.0.0, SVG Export Plug-In . SVG Version: 6.00 Build 0)  -->
<svg version="1.1" id="图层_1" xmlns="http://www.w3.org/2000/svg" xmlns:xlink="http://www.w3.org/1999/xlink" x="0px" y="0px"
	 viewBox="0 0 1200 1000" style="enable-background:new 0 0 1200 1000;" xml:space="preserve">
<style type="text/css">
	.st0{fill-opacity:0;stroke:#000000;stroke-width:2;}
	.st1{fill:none;stroke:#000000;stroke-width:2;stroke-linecap:square;}
	.st2{font-family:'ArialMT';}
	.st3{font-size:10px;}
	.st4{stroke:#000000;stroke-width:2;}
</style>
<g>
	<rect x="50" y="10" class="st0" width="100" height="60"/>
	<line class="st1" x1="40" y1="20" x2="50" y2="20"/>
	<line class="st1" x1="40" y1="40" x2="50" y2="40"/>
	<line class="st1" x1="150" y1="20" x2="160" y2="20"/>
	<line class="st1" x1="150" y1="40" x2="160" y2="40"/>
	<line class="st1" x1="40" y1="60" x2="50" y2="60"/>
	<line class="st1" x1="150" y1="60" x2="160" y2="60"/>
	<rect x="200" y="70" class="st0" width="100" height="60"/>
	<line class="st1" x1="190" y1="80" x2="200" y2="80"/>
	<line class="st1" x1="190" y1="100" x2="200" y2="100"/>
	<line class="st1" x1="300" y1="80" x2="310" y2="80"/>
	<line class="st1" x1="300" y1="100" x2="310" y2="100"/>
	<line class="st1" x1="190" y1="120" x2="200" y2="120"/>
	<line class="st1" x1="300" y1="120" x2="310" y2="120"/>
	<rect x="350" y="130" class="st0" width="100" height="60"/>
	<line class="st1" x1="340" y1="140" x2="350" y2="140"/>
	<line class="st1" x1="340" y1="160" x2="350" y2="160"/>
	<line class="st1" x1="450" y1="140" x2="460" y2="140"/>
	<line class="st1" x1="450" y1="160" x2="460" y2="160"/>
	<line class="st1" x1="340" y1="180" x2="350" y2="180"/>
	<line class="st1" x1="450" y1="180" x2="460" y2="180"/>
	<rect x="500" y="310" class="st0" width="100" height="60"/>
	<line class="st1" x1="490" y1="320" x2="500" y2="320"/>
	<line class="st1" x1="490" y1="340" x2="500" y2="340"/>
	<line class="st1" x1="600" y1="320" x2="610" y2="320"/>
	<line class="st1" x1="600" y1="340" x2="610" y2="340"/>
	<line class="st1" x1="490" y1="360" x2="500" y2="360"/>
	<line class="st1" x1="600" y1="360" x2="610" y2="360"/>
	<text transform="matrix(1 0 0 1 21.6602 13)" class="st2 st3">a[0]</text>
	<text transform="matrix(1 0 0 1 21.6602 33)" class="st2 st3">b[0]</text>
	<text transform="matrix(1 0 0 1 27.5 53)" class="st2 st3">c</text>
	<text transform="matrix(1 0 0 1 174.7192 113)" class="st2 st3">c0</text>
	<text transform="matrix(1 0 0 1 167.4902 13)" class="st2 st3">out[0]</text>
	<text transform="matrix(1 0 0 1 947.4902 13)" class="st2 st3">out[0]</text>
	<text transform="matrix(1 0 0 1 171.6602 93)" class="st2 st3">b[1]</text>
	<text transform="matrix(1 0 0 1 171.6602 73)" class="st2 st3">a[1]</text>
	<text transform="matrix(1 0 0 1 321.6602 133)" class="st2 st3">a[2]</text>
	<text transform="matrix(1 0 0 1 321.6602 153)" class="st2 st3">b[2]</text>
	<text transform="matrix(1 0 0 1 324.7192 173)" class="st2 st3">c1</text>
	<text transform="matrix(1 0 0 1 468.8794 313)" class="st2 st3">a[14]</text>
	<text transform="matrix(1 0 0 1 468.8794 333)" class="st2 st3">b[14]</text>
	<text transform="matrix(1 0 0 1 471.9385 353)" class="st2 st3">c13</text>
	<text transform="matrix(1 0 0 1 947.4902 73)" class="st2 st3">out[1]</text>
	<text transform="matrix(1 0 0 1 317.4902 73)" class="st2 st3">out[1]</text>
	<text transform="matrix(1 0 0 1 947.4902 133)" class="st2 st3">out[2]</text>
	<text transform="matrix(1 0 0 1 954.7095 313)" class="st2 st3">out[14]</text>
	<text transform="matrix(1 0 0 1 621.9385 413)" class="st2 st3">c14</text>
	<text transform="matrix(1 0 0 1 618.8794 393)" class="st2 st3">b[15]</text>
	<text transform="matrix(1 0 0 1 618.8794 373)" class="st2 st3">a[15]</text>
	<rect x="650" y="370" class="st0" width="100" height="60"/>
	<line class="st1" x1="640" y1="380" x2="650" y2="380"/>
	<line class="st1" x1="640" y1="400" x2="650" y2="400"/>
	<line class="st1" x1="750" y1="380" x2="760" y2="380"/>
	<line class="st1" x1="750" y1="400" x2="760" y2="400"/>
	<line class="st1" x1="640" y1="420" x2="650" y2="420"/>
	<line class="st1" x1="750" y1="420" x2="760" y2="420"/>
	<text transform="matrix(1 0 0 1 454.7192 173)" class="st2 st3">c2</text>
	<text transform="matrix(1 0 0 1 954.7095 373)" class="st2 st3">out[15]</text>
	<text transform="matrix(1 0 0 1 760.5493 413)" class="st2 st3">cout</text>
	<line class="st1" x1="830" y1="440" x2="845" y2="440"/>
	<line class="st1" x1="830" y1="460" x2="845" y2="460"/>
	<path class="st0" d="M839,430c13.3,13.3,13.3,26.7,0,40 M847,430c13.3,13.3,13.3,26.7,0,40 M846,470c23.3-3.3,40-10,50-20
		c-10-10-26.7-16.7-50-20"/>
	<line class="st1" x1="895" y1="450" x2="900" y2="450"/>
	<text transform="matrix(1 0 0 1 818.8794 453)" class="st2 st3">a[15]</text>
	<text transform="matrix(1 0 0 1 905.8301 443)" class="st2 st3">t3</text>
	<line class="st1" x1="620" y1="480" x2="635" y2="480"/>
	<line class="st1" x1="620" y1="500" x2="635" y2="500"/>
	<path class="st0" d="M629,470c13.3,13.3,13.3,26.7,0,40 M637,470c13.3,13.3,13.3,26.7,0,40 M636,510c23.3-3.3,40-10,50-20
		c-10-10-26.7-16.7-50-20"/>
	<line class="st1" x1="685" y1="490" x2="690" y2="490"/>
	<line class="st1" x1="730" y1="490" x2="737" y2="490"/>
	<path class="st0" d="M739,490v18l28-18l-28-18V490 M767,490c0-1.7,1.3-3,3-3c1.7,0,3,1.3,3,3c0,1.7-1.3,3-3,3S767,491.7,767,490
		C767,490,767,490,767,490"/>
	<line class="st1" x1="775" y1="490" x2="800" y2="490"/>
	<text transform="matrix(1 0 0 1 598.8794 473)" class="st2 st3">a[15]</text>
	<text transform="matrix(1 0 0 1 598.8794 493)" class="st2 st3">b[15]</text>
	<text transform="matrix(1 0 0 1 708.6108 483)" class="st2 st3">t</text>
	<text transform="matrix(1 0 0 1 825.8301 483)" class="st2 st3">t1</text>
	<line class="st1" x1="920" y1="450" x2="935" y2="450"/>
	<line class="st1" x1="920" y1="470" x2="935" y2="470"/>
	<path class="st0" d="M935,440v40h24 M935,440h24 M959,480c11,0,20-9,20-20s-9-20-20-20"/>
	<line class="st1" x1="981" y1="460" x2="990" y2="460"/>
	<text transform="matrix(1 0 0 1 985.8301 453)" class="st2 st3">of</text>
	<text transform="matrix(1 0 0 1 754.7095 373)" class="st2 st3">out[15]</text>
	<text transform="matrix(1 0 0 1 457.4902 133)" class="st2 st3">out[2]</text>
	<text transform="matrix(1 0 0 1 604.7095 313)" class="st2 st3">out[14]</text>
	<text transform="matrix(1 0 0 1 960.5493 413)" class="st2 st3">cout</text>
	<line class="st1" x1="10" y1="20" x2="40" y2="20"/>
	<line class="st1" x1="10" y1="60" x2="50" y2="60"/>
	<line class="st1" x1="10" y1="40" x2="40" y2="40"/>
	<line class="st1" x1="150" y1="20" x2="990" y2="20"/>
	<line class="st1" x1="110" y1="100" x2="190" y2="100"/>
	<line class="st1" x1="160" y1="120" x2="200" y2="120"/>
	<line class="st1" x1="110" y1="80" x2="190" y2="80"/>
	<line class="st1" x1="160" y1="60" x2="160" y2="120"/>
	<line class="st1" x1="310" y1="120" x2="310" y2="180"/>
	<line class="st1" x1="260" y1="140" x2="340" y2="140"/>
	<line class="st1" x1="310" y1="180" x2="350" y2="180"/>
	<line class="st1" x1="260" y1="160" x2="340" y2="160"/>
	<line class="st1" x1="310" y1="80" x2="990" y2="80"/>
	<line class="st1" x1="460" y1="140" x2="990" y2="140"/>
	<line class="st1" x1="460" y1="300" x2="460" y2="360"/>
	<line class="st1" x1="410" y1="320" x2="490" y2="320"/>
	<line class="st1" x1="460" y1="360" x2="500" y2="360"/>
	<line class="st1" x1="410" y1="340" x2="490" y2="340"/>
	<line class="st1" x1="610" y1="320" x2="1000" y2="320"/>
	<line class="st1" x1="760" y1="380" x2="1000" y2="380"/>
	<line class="st1" x1="530" y1="400" x2="640" y2="400"/>
	<line class="st1" x1="610" y1="420" x2="650" y2="420"/>
	<line class="st1" x1="530" y1="380" x2="640" y2="380"/>
	<line class="st1" x1="610" y1="360" x2="610" y2="420"/>
	<line class="st1" x1="760" y1="420" x2="1000" y2="420"/>
	<line class="st1" x1="800" y1="380" x2="800" y2="440"/>
	<line class="st1" x1="800" y1="440" x2="830" y2="440"/>
	<line class="st1" x1="590" y1="380" x2="590" y2="460"/>
	<line class="st1" x1="590" y1="460" x2="830" y2="460"/>
	<line class="st1" x1="570" y1="380" x2="570" y2="480"/>
	<line class="st1" x1="570" y1="480" x2="630" y2="480"/>
	<line class="st1" x1="550" y1="400" x2="550" y2="500"/>
	<line class="st1" x1="550" y1="500" x2="630" y2="500"/>
	<line class="st1" x1="690" y1="490" x2="730" y2="490"/>
	<line class="st1" x1="800" y1="490" x2="900" y2="490"/>
	<line class="st1" x1="900" y1="450" x2="920" y2="450"/>
	<line class="st1" x1="900" y1="470" x2="900" y2="490"/>
	<line class="st1" x1="900" y1="470" x2="920" y2="470"/>
	<line class="st1" x1="990" y1="460" x2="1000" y2="460"/>
	<ellipse class="st4" cx="800" cy="380" rx="2" ry="2"/>
	<ellipse class="st4" cx="550" cy="400" rx="2" ry="2"/>
	<ellipse class="st4" cx="570" cy="380" rx="2" ry="2"/>
	<ellipse class="st4" cx="590" cy="380" rx="2" ry="2"/>
	<g>
		<path d="M425,197.5c2.1,0,3.9,1.6,3.9,3.8c0,2.2-1.8,3.8-3.9,3.8c-2.3,0-3.8-1.6-3.8-3.8C421.3,198.8,422.9,197.5,425,197.5z"/>
		<path d="M425,217.7c2.1,0,3.9,1.6,3.9,3.8c0,2.2-1.8,3.8-3.9,3.8c-2.3,0-3.8-1.6-3.8-3.8C421.3,219.1,422.9,217.7,425,217.7z"/>
		<path d="M425,238c2.1,0,3.9,1.6,3.9,3.8c0,2.2-1.8,3.8-3.9,3.8c-2.3,0-3.8-1.6-3.8-3.8C421.3,239.4,422.9,238,425,238z"/>
		<path d="M425,258.2c2.1,0,3.9,1.6,3.9,3.8c0,2.2-1.8,3.8-3.9,3.8c-2.3,0-3.8-1.6-3.8-3.8C421.3,259.6,422.9,258.2,425,258.2z"/>
		<path d="M425,278.5c2.1,0,3.9,1.6,3.9,3.8c0,2.2-1.8,3.8-3.9,3.8c-2.3,0-3.8-1.6-3.8-3.8C421.3,279.9,422.9,278.5,425,278.5z"/>
		<path d="M425,298.8c2.1,0,3.9,1.6,3.9,3.8c0,2.2-1.8,3.8-3.9,3.8c-2.3,0-3.8-1.6-3.8-3.8C421.3,300.1,422.9,298.8,425,298.8z"/>
	</g>
	<g>
		<path d="M960.5,167.1c2.1,0,3.9,1.6,3.9,3.8c0,2.2-1.8,3.8-3.9,3.8c-2.3,0-3.8-1.6-3.8-3.8C956.8,168.5,958.4,167.1,960.5,167.1z"
			/>
		<path d="M960.5,187.3c2.1,0,3.9,1.6,3.9,3.8c0,2.2-1.8,3.8-3.9,3.8c-2.3,0-3.8-1.6-3.8-3.8C956.8,188.7,958.4,187.3,960.5,187.3z"
			/>
		<path d="M960.5,207.6c2.1,0,3.9,1.6,3.9,3.8c0,2.2-1.8,3.8-3.9,3.8c-2.3,0-3.8-1.6-3.8-3.8C956.8,209,958.4,207.6,960.5,207.6z"/>
		<path d="M960.5,227.9c2.1,0,3.9,1.6,3.9,3.8c0,2.2-1.8,3.8-3.9,3.8c-2.3,0-3.8-1.6-3.8-3.8C956.8,229.2,958.4,227.9,960.5,227.9z"
			/>
		<path d="M960.5,248.1c2.1,0,3.9,1.6,3.9,3.8c0,2.2-1.8,3.8-3.9,3.8c-2.3,0-3.8-1.6-3.8-3.8C956.8,249.5,958.4,248.1,960.5,248.1z"
			/>
		<path d="M960.5,268.4c2.1,0,3.9,1.6,3.9,3.8c0,2.2-1.8,3.8-3.9,3.8c-2.3,0-3.8-1.6-3.8-3.8C956.8,269.7,958.4,268.4,960.5,268.4z"
			/>
	</g>
</g>
</svg>
