<?xml version="1.0" encoding="utf-8"?>
<!-- Generator: Adobe Illustrator 22.0.0, SVG Export Plug-In . SVG Version: 6.00 Build 0)  -->
<svg version="1.1" id="图层_1" xmlns="http://www.w3.org/2000/svg" xmlns:xlink="http://www.w3.org/1999/xlink" x="0px" y="0px"
	 viewBox="0 0 640 1000" style="enable-background:new 0 0 640 1000;" xml:space="preserve">
<style type="text/css">
	.st0{fill:none;stroke:#000000;stroke-width:2;stroke-linecap:square;}
	.st1{fill-opacity:0;stroke:#000000;stroke-width:2;}
	.st2{font-family:'ArialMT';}
	.st3{font-size:10px;}
</style>
<g>
	<line class="st0" x1="80" y1="130" x2="95" y2="130"/>
	<line class="st0" x1="80" y1="150" x2="95" y2="150"/>
	<path class="st1" d="M95,120v40h24 M95,120h24 M119,160c11,0,20-9,20-20s-9-20-20-20"/>
	<line class="st0" x1="141" y1="140" x2="150" y2="140"/>
	<text transform="matrix(1 0 0 1 44.9927 123)" class="st2 st3">in-lo[0]</text>
	<text transform="matrix(1 0 0 1 51.3843 143)" class="st2 st3">true</text>
	<text transform="matrix(1 0 0 1 161.9336 133)" class="st2 st3">out-lo[1]</text>
	<text transform="matrix(1 0 0 1 161.9336 183)" class="st2 st3">out-lo[2]</text>
	<text transform="matrix(1 0 0 1 51.3843 193)" class="st2 st3">true</text>
	<text transform="matrix(1 0 0 1 44.9927 173)" class="st2 st3">in-lo[1]</text>
	<line class="st0" x1="80" y1="180" x2="95" y2="180"/>
	<line class="st0" x1="80" y1="200" x2="95" y2="200"/>
	<path class="st1" d="M95,170v40h24 M95,170h24 M119,210c11,0,20-9,20-20s-9-20-20-20"/>
	<line class="st0" x1="141" y1="190" x2="150" y2="190"/>
	<text transform="matrix(1 0 0 1 161.9336 233)" class="st2 st3">out-lo[3]</text>
	<text transform="matrix(1 0 0 1 51.3843 243)" class="st2 st3">true</text>
	<text transform="matrix(1 0 0 1 44.9927 223)" class="st2 st3">in-lo[2]</text>
	<line class="st0" x1="80" y1="230" x2="95" y2="230"/>
	<line class="st0" x1="80" y1="250" x2="95" y2="250"/>
	<path class="st1" d="M95,220v40h24 M95,220h24 M119,260c11,0,20-9,20-20s-9-20-20-20"/>
	<line class="st0" x1="141" y1="240" x2="150" y2="240"/>
	<text transform="matrix(1 0 0 1 159.1528 343)" class="st2 st3">out-lo[15]</text>
	<text transform="matrix(1 0 0 1 51.3843 353)" class="st2 st3">true</text>
	<text transform="matrix(1 0 0 1 42.2119 333)" class="st2 st3">in-lo[14]</text>
	<line class="st0" x1="80" y1="340" x2="95" y2="340"/>
	<line class="st0" x1="80" y1="360" x2="95" y2="360"/>
	<path class="st1" d="M95,330v40h24 M95,330h24 M119,370c11,0,20-9,20-20s-9-20-20-20"/>
	<line class="st0" x1="141" y1="350" x2="150" y2="350"/>
	<text transform="matrix(1 0 0 1 161.9336 83)" class="st2 st3">out-lo[0]</text>
	<text transform="matrix(1 0 0 1 49.4385 93)" class="st2 st3">false</text>
	<text transform="matrix(1 0 0 1 49.4385 73)" class="st2 st3">false</text>
	<line class="st0" x1="80" y1="80" x2="95" y2="80"/>
	<line class="st0" x1="80" y1="100" x2="95" y2="100"/>
	<path class="st1" d="M95,70v40h24 M95,70h24 M119,110c11,0,20-9,20-20s-9-20-20-20"/>
	<line class="st0" x1="141" y1="90" x2="150" y2="90"/>
	<line class="st0" x1="80" y1="390" x2="95" y2="390"/>
	<line class="st0" x1="80" y1="410" x2="95" y2="410"/>
	<path class="st1" d="M95,380v40h24 M95,380h24 M119,420c11,0,20-9,20-20s-9-20-20-20"/>
	<line class="st0" x1="141" y1="400" x2="150" y2="400"/>
	<text transform="matrix(1 0 0 1 42.2119 383)" class="st2 st3">in-lo[15]</text>
	<text transform="matrix(1 0 0 1 51.3843 403)" class="st2 st3">true</text>
	<text transform="matrix(1 0 0 1 161.9336 393)" class="st2 st3">out-hi[0]</text>
	<line class="st0" x1="80" y1="590" x2="95" y2="590"/>
	<line class="st0" x1="80" y1="610" x2="95" y2="610"/>
	<path class="st1" d="M95,580v40h24 M95,580h24 M119,620c11,0,20-9,20-20s-9-20-20-20"/>
	<line class="st0" x1="141" y1="600" x2="150" y2="600"/>
	<text transform="matrix(1 0 0 1 42.2119 583)" class="st2 st3">in-hi[14]</text>
	<text transform="matrix(1 0 0 1 51.3843 603)" class="st2 st3">true</text>
	<text transform="matrix(1 0 0 1 159.1528 593)" class="st2 st3">out-hi[15]</text>
	<text transform="matrix(1 0 0 1 51.3843 453)" class="st2 st3">true</text>
	<text transform="matrix(1 0 0 1 44.9927 433)" class="st2 st3">in-hi[0]</text>
	<line class="st0" x1="80" y1="440" x2="95" y2="440"/>
	<line class="st0" x1="80" y1="460" x2="95" y2="460"/>
	<path class="st1" d="M95,430v40h24 M95,430h24 M119,470c11,0,20-9,20-20s-9-20-20-20"/>
	<line class="st0" x1="141" y1="450" x2="150" y2="450"/>
	<text transform="matrix(1 0 0 1 161.9336 443)" class="st2 st3">out-hi[1]</text>
	<text transform="matrix(1 0 0 1 161.9336 493)" class="st2 st3">out-hi[2]</text>
	<line class="st0" x1="80" y1="490" x2="95" y2="490"/>
	<line class="st0" x1="80" y1="510" x2="95" y2="510"/>
	<path class="st1" d="M95,480v40h24 M95,480h24 M119,520c11,0,20-9,20-20s-9-20-20-20"/>
	<line class="st0" x1="141" y1="500" x2="150" y2="500"/>
	<text transform="matrix(1 0 0 1 44.9927 483)" class="st2 st3">in-hi[1]</text>
	<text transform="matrix(1 0 0 1 51.3843 503)" class="st2 st3">true</text>
	<line class="st0" x1="40" y1="130" x2="80" y2="130"/>
	<line class="st0" x1="40" y1="150" x2="80" y2="150"/>
	<line class="st0" x1="150" y1="140" x2="240" y2="140"/>
	<line class="st0" x1="150" y1="190" x2="240" y2="190"/>
	<line class="st0" x1="40" y1="200" x2="80" y2="200"/>
	<line class="st0" x1="40" y1="180" x2="80" y2="180"/>
	<line class="st0" x1="150" y1="240" x2="240" y2="240"/>
	<line class="st0" x1="40" y1="250" x2="80" y2="250"/>
	<line class="st0" x1="40" y1="230" x2="80" y2="230"/>
	<line class="st0" x1="150" y1="350" x2="240" y2="350"/>
	<line class="st0" x1="40" y1="360" x2="80" y2="360"/>
	<line class="st0" x1="40" y1="340" x2="80" y2="340"/>
	<line class="st0" x1="150" y1="90" x2="240" y2="90"/>
	<line class="st0" x1="40" y1="100" x2="80" y2="100"/>
	<line class="st0" x1="40" y1="80" x2="80" y2="80"/>
	<line class="st0" x1="40" y1="390" x2="80" y2="390"/>
	<line class="st0" x1="40" y1="410" x2="80" y2="410"/>
	<line class="st0" x1="150" y1="400" x2="240" y2="400"/>
	<line class="st0" x1="40" y1="590" x2="80" y2="590"/>
	<line class="st0" x1="40" y1="610" x2="80" y2="610"/>
	<line class="st0" x1="150" y1="600" x2="240" y2="600"/>
	<line class="st0" x1="150" y1="450" x2="240" y2="450"/>
	<line class="st0" x1="40" y1="460" x2="80" y2="460"/>
	<line class="st0" x1="40" y1="440" x2="80" y2="440"/>
	<line class="st0" x1="40" y1="490" x2="80" y2="490"/>
	<line class="st0" x1="40" y1="510" x2="80" y2="510"/>
	<line class="st0" x1="150" y1="500" x2="240" y2="500"/>
	<g>
		<path d="M111.2,530c0.9,0,1.6,0.7,1.6,1.5c0,0.9-0.7,1.6-1.6,1.6c-0.9,0-1.5-0.7-1.5-1.6C109.7,530.6,110.4,530,111.2,530z"/>
		<path d="M111.2,538.2c0.9,0,1.6,0.7,1.6,1.5c0,0.9-0.7,1.6-1.6,1.6c-0.9,0-1.5-0.7-1.5-1.6C109.7,538.7,110.4,538.2,111.2,538.2z"
			/>
		<path d="M111.2,546.3c0.9,0,1.6,0.7,1.6,1.5c0,0.9-0.7,1.6-1.6,1.6c-0.9,0-1.5-0.7-1.5-1.6C109.7,546.9,110.4,546.3,111.2,546.3z"
			/>
		<path d="M111.2,554.5c0.9,0,1.6,0.7,1.6,1.5c0,0.9-0.7,1.6-1.6,1.6c-0.9,0-1.5-0.7-1.5-1.6C109.7,555.1,110.4,554.5,111.2,554.5z"
			/>
		<path d="M111.2,562.7c0.9,0,1.6,0.7,1.6,1.5c0,0.9-0.7,1.6-1.6,1.6c-0.9,0-1.5-0.7-1.5-1.6C109.7,563.2,110.4,562.7,111.2,562.7z"
			/>
		<path d="M111.2,570.8c0.9,0,1.6,0.7,1.6,1.5c0,0.9-0.7,1.6-1.6,1.6c-0.9,0-1.5-0.7-1.5-1.6C109.7,571.4,110.4,570.8,111.2,570.8z"
			/>
	</g>
	<g>
		<path d="M111.2,273.1c0.9,0,1.6,0.7,1.6,1.5c0,0.9-0.7,1.6-1.6,1.6c-0.9,0-1.5-0.7-1.5-1.6C109.7,273.6,110.4,273.1,111.2,273.1z"
			/>
		<path d="M111.2,281.2c0.9,0,1.6,0.7,1.6,1.5c0,0.9-0.7,1.6-1.6,1.6c-0.9,0-1.5-0.7-1.5-1.6C109.7,281.8,110.4,281.2,111.2,281.2z"
			/>
		<path d="M111.2,289.4c0.9,0,1.6,0.7,1.6,1.5c0,0.9-0.7,1.6-1.6,1.6c-0.9,0-1.5-0.7-1.5-1.6C109.7,289.9,110.4,289.4,111.2,289.4z"
			/>
		<path d="M111.2,297.6c0.9,0,1.6,0.7,1.6,1.5c0,0.9-0.7,1.6-1.6,1.6c-0.9,0-1.5-0.7-1.5-1.6C109.7,298.1,110.4,297.6,111.2,297.6z"
			/>
		<path d="M111.2,305.7c0.9,0,1.6,0.7,1.6,1.5c0,0.9-0.7,1.6-1.6,1.6c-0.9,0-1.5-0.7-1.5-1.6C109.7,306.3,110.4,305.7,111.2,305.7z"
			/>
		<path d="M111.2,313.9c0.9,0,1.6,0.7,1.6,1.5c0,0.9-0.7,1.6-1.6,1.6c-0.9,0-1.5-0.7-1.5-1.6C109.7,314.4,110.4,313.9,111.2,313.9z"
			/>
	</g>
</g>
</svg>
