<svg id="图层_1" data-name="图层 1" xmlns="http://www.w3.org/2000/svg" viewBox="0 0 1365 517.47"><defs><style>.cls-1,.cls-6,.cls-8{fill:none;}.cls-1,.cls-2,.cls-5,.cls-6,.cls-8{stroke:#000;stroke-width:2px;}.cls-1{stroke-linecap:square;}.cls-2{fill-opacity:0;}.cls-3{isolation:isolate;font-size:10px;font-family:ArialMT, Arial;}.cls-4{letter-spacing:-0.04em;}.cls-7{writing-mode:tb;text-orientation:sideways-right;glyph-orientation-vertical:90deg;font-size:12px;font-family:AdobeSongStd-Light-GBpc-EUC-H, Adobe Song Std;}.cls-8{stroke-miterlimit:10;}</style></defs><title>mult</title><line class="cls-1" x1="64" y1="75.58" x2="71" y2="75.58"/><path class="cls-2" d="M79,80V98l28-18L79,62V80m28,0a3,3,0,1,1,3,3,3,3,0,0,1-3-3h0" transform="translate(-6 -4.42)"/><line class="cls-1" x1="109" y1="75.58" x2="134" y2="75.58"/><line class="cls-1" x1="64" y1="135.58" x2="71" y2="135.58"/><path class="cls-2" d="M79,140v18l28-18L79,122v18m28,0a3,3,0,1,1,3,3,3,3,0,0,1-3-3h0" transform="translate(-6 -4.42)"/><line class="cls-1" x1="109" y1="135.58" x2="134" y2="135.58"/><line class="cls-1" x1="107" y1="75.58" x2="134" y2="75.58"/><rect class="cls-2" x="134" y="67.58" width="40" height="16"/><line class="cls-1" x1="174" y1="75.58" x2="204" y2="75.58"/><text class="cls-3" transform="translate(141.77 78.71)">Inc16</text><line class="cls-1" x1="107" y1="135.58" x2="134" y2="135.58"/><rect class="cls-2" x="134" y="127.58" width="40" height="16"/><line class="cls-1" x1="174" y1="135.58" x2="204" y2="135.58"/><text class="cls-3" transform="translate(141.77 138.58)">Inc16</text><line class="cls-1" x1="204" y1="55.58" x2="214" y2="55.58"/><line class="cls-1" x1="204" y1="75.58" x2="214" y2="75.58"/><line class="cls-1" x1="258" y1="65.58" x2="264" y2="65.58"/><polyline class="cls-2" points="214 65.58 214 95.58 258 65.58 214 35.58 214 65.58"/><line class="cls-1" x1="204" y1="135.58" x2="213.16" y2="135.58"/><line class="cls-1" x1="258" y1="145.58" x2="264" y2="145.58"/><path class="cls-2" d="M264,150" transform="translate(-6 -4.42)"/><line class="cls-1" x1="204" y1="215.58" x2="213.25" y2="215.58"/><line class="cls-1" x1="258" y1="205.58" x2="264" y2="205.58"/><path class="cls-2" d="M264,210" transform="translate(-6 -4.42)"/><line class="cls-1" x1="314" y1="215.58" x2="314" y2="225.58"/><line class="cls-1" x1="334" y1="215.58" x2="334" y2="225.58"/><line class="cls-1" x1="354" y1="215.58" x2="354" y2="225.58"/><line class="cls-1" x1="7" y1="295.58" x2="484" y2="295.58"/><circle class="cls-2" cx="4" cy="295.58" r="3"/><line class="cls-1" x1="444" y1="235.58" x2="459" y2="235.58"/><line class="cls-1" x1="444" y1="255.58" x2="459" y2="255.58"/><path class="cls-2" d="M459,230q20,20,0,40m8-40q20,20,0,40m-1,0q35-5,50-20-15-15-50-20" transform="translate(-6 -4.42)"/><line class="cls-1" x1="509" y1="245.58" x2="514" y2="245.58"/><rect class="cls-2" x="554" y="365.58" width="100" height="60"/><line class="cls-1" x1="544" y1="375.58" x2="554" y2="375.58"/><line class="cls-1" x1="544" y1="395.58" x2="554" y2="395.58"/><line class="cls-1" x1="654" y1="375.58" x2="664" y2="375.58"/><path class="cls-1" d="M670,400" transform="translate(-6 -4.42)"/><path class="cls-1" d="M660,400" transform="translate(-6 -4.42)"/><line class="cls-1" x1="544" y1="415.58" x2="554" y2="415.58"/><line class="cls-1" x1="654" y1="415.58" x2="664" y2="415.58"/><rect class="cls-2" x="714" y="425.58" width="100" height="60"/><line class="cls-1" x1="704" y1="435.58" x2="714" y2="435.58"/><line class="cls-1" x1="704" y1="455.58" x2="714" y2="455.58"/><line class="cls-1" x1="814" y1="435.58" x2="824" y2="435.58"/><line class="cls-1" x1="704" y1="475.58" x2="714" y2="475.58"/><line class="cls-1" x1="814" y1="475.58" x2="824" y2="475.58"/><line class="cls-1" x1="854" y1="465.58" x2="861" y2="465.58"/><path class="cls-2" d="M869,470v18l28-18-28-18v18m28,0a3,3,0,1,1,3,3,3,3,0,0,1-3-3h0" transform="translate(-6 -4.42)"/><line class="cls-1" x1="899" y1="465.58" x2="924" y2="465.58"/><line class="cls-1" x1="934" y1="495.58" x2="941" y2="495.58"/><path class="cls-2" d="M949,500v18l28-18-28-18v18m28,0a3,3,0,1,1,3,3,3,3,0,0,1-3-3" transform="translate(-6 -4.42)"/><line class="cls-1" x1="979" y1="495.58" x2="1004" y2="495.58"/><line class="cls-1" x1="1054" y1="375.58" x2="1064" y2="375.58"/><line class="cls-1" x1="1054" y1="395.58" x2="1064" y2="395.58"/><line class="cls-1" x1="1108" y1="385.58" x2="1114" y2="385.58"/><polyline class="cls-2" points="1064 385.58 1064 415.58 1108 385.58 1064 355.58 1064 385.58"/><line class="cls-1" x1="1064" y1="475.58" x2="1074" y2="475.58"/><line class="cls-1" x1="1064" y1="495.58" x2="1074" y2="495.58"/><line class="cls-1" x1="1118" y1="485.58" x2="1124" y2="485.58"/><polyline class="cls-2" points="1074 485.58 1074 515.58 1118 485.58 1074 455.58 1074 485.58"/><line class="cls-1" x1="884" y1="155.58" x2="899" y2="155.58"/><rect class="cls-2" x="899" y="147.58" width="40" height="16"/><line class="cls-1" x1="939" y1="155.58" x2="954" y2="155.58"/><text class="cls-3" transform="translate(900.85 158.58)">Or8<tspan class="cls-4" x="16.67" y="0">W</tspan><tspan x="25.74" y="0">ay</tspan></text><line class="cls-1" x1="884" y1="175.58" x2="899" y2="175.58"/><rect class="cls-2" x="899" y="167.58" width="40" height="16"/><line class="cls-1" x1="939" y1="175.58" x2="954" y2="175.58"/><text class="cls-3" transform="translate(900.85 179.08)">Or8<tspan class="cls-4" x="16.67" y="0">W</tspan><tspan x="25.74" y="0">ay</tspan></text><line class="cls-1" x1="984" y1="155.58" x2="999" y2="155.58"/><line class="cls-1" x1="984" y1="175.58" x2="999" y2="175.58"/><path class="cls-2" d="M999,150q20,20,0,40m-1,0q35-5,50-20-15-15-50-20" transform="translate(-6 -4.42)"/><line class="cls-1" x1="1044" y1="165.58" x2="1054" y2="165.58"/><line class="cls-1" x1="1154" y1="245.58" x2="1169" y2="245.58"/><line class="cls-1" x1="1154" y1="265.58" x2="1169" y2="265.58"/><path class="cls-2" d="M1169,240q20,20,0,40m8-40q20,20,0,40m-1,0q35-5,50-20-15-15-50-20" transform="translate(-6 -4.42)"/><line class="cls-1" x1="1219" y1="255.58" x2="1224" y2="255.58"/><line class="cls-1" x1="1244" y1="165.58" x2="1259" y2="165.58"/><line class="cls-1" x1="1244" y1="185.58" x2="1259" y2="185.58"/><path class="cls-2" d="M1259,160q20,20,0,40m-1,0q35-5,50-20-15-15-50-20" transform="translate(-6 -4.42)"/><line class="cls-1" x1="1304" y1="175.58" x2="1314" y2="175.58"/><text class="cls-3" transform="translate(1143.84 298.58)">out[15]=sign1</text><text class="cls-3" transform="translate(586.76 398.58)">Addu16</text><text class="cls-3" transform="translate(746.76 458.58)">Addu16</text><text class="cls-3" transform="translate(7.05 68.58)">a(16bit)</text><text class="cls-3" transform="translate(91.49 68.58)">naa(16bit)</text><text class="cls-3" transform="translate(174.27 68.58)">na(16bit)</text><text class="cls-3" transform="translate(192.88 8.58)">a[15]</text><text class="cls-3" transform="translate(254.27 58.58)">aa(16bit)</text><text class="cls-3" transform="translate(13.44 288.58)">false</text><text class="cls-3" transform="translate(15.38 328.58)">ture</text><text class="cls-3" transform="translate(268.44 138.58)">b0</text><text class="cls-3" transform="translate(268.44 158.58)">b1</text><text class="cls-3" transform="translate(265.66 198.58)">b15</text><text class="cls-3" transform="translate(366.21 68.58)">ans-lo(16bit)</text><text class="cls-3" transform="translate(366.21 108.58)">ans-hi(16bit)</text><text class="cls-3" transform="translate(367.45 148.58)"><tspan xml:space="preserve">out-hi[0..7]=or1    (8bit)</tspan></text><text class="cls-3" transform="translate(364.67 168.58)"><tspan xml:space="preserve">out-hi[8..15]=or2   (8bit)</tspan></text><text class="cls-3" transform="translate(452.88 208.58)">a[15]</text><text class="cls-3" transform="translate(412.88 248.58)">b[15]</text><text class="cls-3" transform="translate(554.83 238.58)">sign</text><text class="cls-3" transform="translate(1134.83 238.58)">sign</text><text class="cls-3" transform="translate(713.71 368.58)">anss-lo(16bit)</text><text class="cls-3" transform="translate(665.94 488.58)">c-lo</text><text class="cls-3" transform="translate(815.94 488.58)">c-hi</text><text class="cls-3" transform="translate(943.43 458.58)">nans-lo(16bit)</text><text class="cls-3" transform="translate(983.43 488.58)">nans-hi(16bit)</text><text class="cls-3" transform="translate(819 428.58)"><tspan xml:space="preserve">anss-hi  (16bit)</tspan></text><text class="cls-3" transform="translate(1147.32 378.58)">out-lo(16bit)</text><text class="cls-3" transform="translate(1147.32 478.58)">out-hi(16bit)</text><text class="cls-3" transform="translate(777.45 148.58)">out-hi[0..7]=or1 (8bit)</text><text class="cls-3" transform="translate(956.77 148.58)">or3</text><text class="cls-3" transform="translate(956.77 168.58)">or4</text><text class="cls-3" transform="translate(774.67 168.58)">out-hi[8..15]=or2 (8bit)</text><text class="cls-3" transform="translate(1139.83 158.58)">t1</text><text class="cls-3" transform="translate(1229.83 218.58)">t2</text><text class="cls-3" transform="translate(1329.83 168.58)">of</text><line class="cls-1" x1="14" y1="75.58" x2="64" y2="75.58"/><line class="cls-1" x1="14" y1="135.58" x2="64" y2="135.58"/><line class="cls-1" x1="44" y1="55.58" x2="44" y2="75.58"/><line class="cls-1" x1="44" y1="55.58" x2="214" y2="55.58"/><line class="cls-1" x1="44" y1="135.58" x2="44" y2="215.58"/><line class="cls-1" x1="44" y1="215.58" x2="204" y2="215.58"/><line class="cls-1" x1="194" y1="15.58" x2="194" y2="55.58"/><line class="cls-1" x1="194" y1="15.58" x2="444" y2="15.58"/><line class="cls-1" x1="234" y1="15.58" x2="234" y2="47.92"/><line class="cls-1" x1="194" y1="215.58" x2="194" y2="255.58"/><line class="cls-1" x1="194" y1="255.58" x2="454" y2="255.58"/><line class="cls-1" x1="234" y1="222.96" x2="234" y2="255.58"/><line class="cls-1" x1="257.25" y1="65.58" x2="304" y2="65.58"/><line class="cls-1" x1="254" y1="145.58" x2="304" y2="145.58"/><line class="cls-1" x1="254" y1="165.58" x2="304" y2="165.58"/><line class="cls-1" x1="254" y1="205.58" x2="304" y2="205.58"/><line class="cls-1" x1="4" y1="335.58" x2="684" y2="335.58"/><line class="cls-1" x1="314" y1="215.58" x2="314" y2="295.58"/><line class="cls-1" x1="334" y1="215.58" x2="334" y2="295.58"/><line class="cls-1" x1="354" y1="215.58" x2="354" y2="295.58"/><line class="cls-1" x1="364" y1="75.58" x2="524" y2="75.58"/><line class="cls-1" x1="364" y1="115.58" x2="704" y2="115.58"/><line class="cls-1" x1="364" y1="155.58" x2="884" y2="155.58"/><line class="cls-1" x1="364" y1="175.58" x2="884" y2="175.58"/><line class="cls-1" x1="444" y1="15.58" x2="444" y2="235.58"/><line class="cls-1" x1="514" y1="245.58" x2="1154" y2="245.58"/><line class="cls-1" x1="524" y1="75.58" x2="524" y2="375.58"/><line class="cls-1" x1="504" y1="335.58" x2="504" y2="395.58"/><line class="cls-1" x1="504" y1="395.58" x2="544" y2="395.58"/><line class="cls-1" x1="484" y1="295.58" x2="484" y2="415.58"/><line class="cls-1" x1="484" y1="415.58" x2="544" y2="415.58"/><line class="cls-1" x1="524" y1="375.58" x2="544" y2="375.58"/><line class="cls-1" x1="654" y1="375.58" x2="1054" y2="375.58"/><line class="cls-1" x1="664" y1="415.58" x2="664" y2="475.58"/><line class="cls-1" x1="664" y1="475.58" x2="704" y2="475.58"/><line class="cls-1" x1="704" y1="115.58" x2="704" y2="435.58"/><line class="cls-1" x1="684" y1="335.58" x2="684" y2="455.58"/><line class="cls-1" x1="684" y1="455.58" x2="714" y2="455.58"/><line class="cls-1" x1="814" y1="435.58" x2="1064" y2="435.58"/><line class="cls-1" x1="854" y1="375.58" x2="854" y2="465.58"/><line class="cls-1" x1="934" y1="435.58" x2="934" y2="495.58"/><line class="cls-1" x1="924" y1="465.58" x2="1054" y2="465.58"/><line class="cls-1" x1="1004" y1="495.58" x2="1064" y2="495.58"/><line class="cls-1" x1="1054" y1="395.58" x2="1054" y2="465.58"/><line class="cls-1" x1="1064" y1="435.58" x2="1064" y2="475.58"/><line class="cls-1" x1="1114" y1="385.58" x2="1364" y2="385.58"/><line class="cls-1" x1="1134" y1="265.58" x2="1134" y2="385.58"/><line class="cls-1" x1="1134" y1="265.58" x2="1154" y2="265.58"/><line class="cls-1" x1="1044" y1="165.58" x2="1254" y2="165.58"/><line class="cls-1" x1="1224" y1="255.58" x2="1244" y2="255.58"/><line class="cls-1" x1="1244" y1="185.58" x2="1244" y2="255.58"/><line class="cls-1" x1="1244" y1="185.58" x2="1254" y2="185.58"/><line class="cls-1" x1="1124" y1="485.58" x2="1364" y2="485.58"/><line class="cls-1" x1="1314" y1="175.58" x2="1364" y2="175.58"/><line class="cls-1" x1="254" y1="145.58" x2="254" y2="205.58"/><line class="cls-1" x1="1084" y1="245.58" x2="1084" y2="368.58"/><line class="cls-1" x1="1094" y1="435.58" x2="1094" y2="468.25"/><line class="cls-1" x1="1094" y1="435.58" x2="1124" y2="435.58"/><line class="cls-1" x1="1124" y1="245.58" x2="1124" y2="435.58"/><line class="cls-1" x1="954" y1="155.58" x2="984" y2="155.58"/><line class="cls-1" x1="954" y1="175.58" x2="984" y2="175.58"/><circle class="cls-5" cx="314" cy="295.58" r="2"/><circle class="cls-5" cx="334" cy="295.58" r="2"/><circle class="cls-5" cx="354" cy="295.58" r="2"/><circle class="cls-5" cx="1244" cy="185.58" r="2"/><circle class="cls-5" cx="44" cy="75.58" r="2"/><circle class="cls-5" cx="44" cy="135.58" r="2"/><circle class="cls-5" cx="194" cy="55.58" r="2"/><circle class="cls-5" cx="194" cy="215.58" r="2"/><circle class="cls-5" cx="234" cy="15.58" r="2"/><circle class="cls-5" cx="234" cy="255.58" r="2"/><circle class="cls-5" cx="254" cy="165.58" r="2"/><circle class="cls-5" cx="504" cy="335.58" r="2"/><circle class="cls-5" cx="1084" cy="245.58" r="2"/><circle class="cls-5" cx="1124" cy="245.58" r="2"/><circle class="cls-5" cx="854" cy="375.58" r="2"/><circle class="cls-5" cx="934" cy="435.58" r="2"/><circle class="cls-5" cx="1134" cy="385.58" r="2"/><polygon class="cls-6" points="254 205.58 213.75 239.46 213.75 115.58 254.25 145.46 254 205.58"/><text class="cls-7" transform="translate(276.42 169)">......</text><rect class="cls-8" x="304.67" y="53.58" width="59.33" height="160"/><text class="cls-3" transform="translate(217.1 68.58)">Mux16</text><text class="cls-3" transform="translate(218.77 176.58)">Mux16</text><text class="cls-3" transform="translate(1069 388.92)">Mux16</text><text class="cls-3" transform="translate(1078.77 488.58)">Mux16</text><text class="cls-3" transform="translate(309.88 125.58)">multstep16<tspan x="16.95" y="24">*16</tspan></text><text class="cls-3" transform="translate(174.27 129.92)">nb(16bit)</text><text class="cls-3" transform="translate(91.49 129.92)">nbb(16bit)</text><text class="cls-3" transform="translate(8.71 127.58)">b(16bit)</text></svg>