<?xml version="1.0" encoding="utf-8"?>
<!-- Generator: Adobe Illustrator 22.0.0, SVG Export Plug-In . SVG Version: 6.00 Build 0)  -->
<svg version="1.1" id="图层_1" xmlns="http://www.w3.org/2000/svg" xmlns:xlink="http://www.w3.org/1999/xlink" x="0px" y="0px"
	 viewBox="0 0 640 480" style="enable-background:new 0 0 640 480;" xml:space="preserve">
<style type="text/css">
	.st0{fill:none;stroke:#000000;stroke-width:2;stroke-linecap:square;}
	.st1{fill-opacity:0;stroke:#000000;stroke-width:2;}
	.st2{font-family:'ArialMT';}
	.st3{font-size:10px;}
	.st4{stroke:#000000;stroke-width:2;}
</style>
<line class="st0" x1="110" y1="150" x2="120" y2="150"/>
<line class="st0" x1="110" y1="170" x2="120" y2="170"/>
<line class="st0" x1="164" y1="160" x2="170" y2="160"/>
<path class="st1" d="M120,160v30l44-30l-44-30V160 M125,150h10 M130,145v10 M125,170h10"/>
<line class="st0" x1="23" y1="100" x2="190" y2="100"/>
<ellipse class="st1" cx="20" cy="100" rx="3" ry="3"/>
<line class="st0" x1="190" y1="210" x2="200" y2="210"/>
<line class="st0" x1="190" y1="230" x2="200" y2="230"/>
<line class="st0" x1="244" y1="220" x2="250" y2="220"/>
<path class="st1" d="M200,220v30l44-30l-44-30V220 M205,210h10 M210,205v10 M205,230h10"/>
<text transform="matrix(1 0 0 1 27.5 73)" class="st2 st3">y</text>
<text transform="matrix(1 0 0 1 29.4385 93)" class="st2 st3">false</text>
<text transform="matrix(1 0 0 1 27.771 163)" class="st2 st3">x-lo(16bit)</text>
<text transform="matrix(1 0 0 1 27.771 223)" class="st2 st3">x-hi(16bit)</text>
<text transform="matrix(1 0 0 1 255.271 153)" class="st2 st3">xx-lo(16bit)</text>
<text transform="matrix(1 0 0 1 255.271 213)" class="st2 st3">xx-hi(16bit)</text>
<text transform="matrix(1 0 0 1 26.0937 263)" class="st2 st3">preout-lo(16bit)</text>
<text transform="matrix(1 0 0 1 26.0937 283)" class="st2 st3">preout-hi(16bit)</text>
<rect x="320" y="150" class="st1" width="100" height="40"/>
<line class="st0" x1="310" y1="160" x2="320" y2="160"/>
<line class="st0" x1="310" y1="180" x2="320" y2="180"/>
<rect x="330" y="210" class="st1" width="100" height="40"/>
<line class="st0" x1="320" y1="220" x2="330" y2="220"/>
<line class="st0" x1="320" y1="240" x2="330" y2="240"/>
<text transform="matrix(1 0 0 1 473.3203 163)" class="st2 st3">out-lo(16bit)</text>
<text transform="matrix(1 0 0 1 473.3203 223)" class="st2 st3">out-hi(16bit)</text>
<rect x="330" y="300" class="st1" width="100" height="40"/>
<line class="st0" x1="320" y1="310" x2="330" y2="310"/>
<line class="st0" x1="320" y1="330" x2="330" y2="330"/>
<line class="st0" x1="430" y1="310" x2="440" y2="310"/>
<line class="st0" x1="430" y1="330" x2="440" y2="330"/>
<text transform="matrix(1 0 0 1 470.8203 303)" class="st2 st3">xout-lo(16bit)</text>
<text transform="matrix(1 0 0 1 470.8203 323)" class="st2 st3">xout-hi(16bit)</text>
<text transform="matrix(1 0 0 1 355.542 173)" class="st2 st3">Add16</text>
<text transform="matrix(1 0 0 1 365.542 233)" class="st2 st3">Add16</text>
<text transform="matrix(1 0 0 1 363.3228 323)" class="st2 st3">lShift16</text>
<line class="st0" x1="80" y1="100" x2="80" y2="150"/>
<line class="st0" x1="80" y1="150" x2="110" y2="150"/>
<line class="st0" x1="20" y1="170" x2="120" y2="170"/>
<line class="st0" x1="170" y1="160" x2="310" y2="160"/>
<line class="st0" x1="190" y1="100" x2="190" y2="210"/>
<line class="st0" x1="20" y1="230" x2="190" y2="230"/>
<line class="st0" x1="20" y1="80" x2="220" y2="80"/>
<line class="st0" x1="140" y1="80" x2="140" y2="142.9"/>
<line class="st0" x1="220" y1="80" x2="220" y2="203.6"/>
<line class="st0" x1="250" y1="220" x2="320" y2="220"/>
<line class="st0" x1="20" y1="270" x2="310" y2="270"/>
<line class="st0" x1="20" y1="290" x2="320" y2="290"/>
<line class="st0" x1="310" y1="180" x2="310" y2="270"/>
<line class="st0" x1="320" y1="240" x2="320" y2="290"/>
<line class="st0" x1="420" y1="170" x2="630" y2="170"/>
<line class="st0" x1="430" y1="230" x2="630" y2="230"/>
<line class="st0" x1="110" y1="170" x2="110" y2="310"/>
<line class="st0" x1="110" y1="310" x2="320" y2="310"/>
<line class="st0" x1="130" y1="230" x2="130" y2="330"/>
<line class="st0" x1="130" y1="330" x2="320" y2="330"/>
<line class="st0" x1="440" y1="310" x2="630" y2="310"/>
<line class="st0" x1="440" y1="330" x2="630" y2="330"/>
<ellipse class="st4" cx="110" cy="170" rx="2" ry="2"/>
<ellipse class="st4" cx="80" cy="100" rx="2" ry="2"/>
<ellipse class="st4" cx="130" cy="230" rx="2" ry="2"/>
<ellipse class="st4" cx="140" cy="80" rx="2" ry="2"/>
</svg>
